<?xml version="1.0" encoding="UTF-8"?>
<svg version="1.1" viewBox="0 0 1920 1920" width="1280" height="1280" xmlns="http://www.w3.org/2000/svg">
<path transform="translate(0)" d="m0 0h1920v1920h-1920z" fill="#D9D9D9"/>
<path transform="translate(859,420)" d="m0 0h67l26 3 13 4 4 4 9 15 10 14 13 16 12 13 18 18 11 9 15 12 18 12 20 12 19 10 28 12 34 11 30 7 23 4 28 3 2 2 10 40 10 47 8 43 6 40 4 35 2 26 1 25v15l-1 2h2l1-11 9-43 8-31 7-23 10-25 8-16 9-12 9-7 6-2 10 1 7 3v2l5 2 7 6v2h2l7 11 8 16 5 15 4 20 1 9v25l-3 21-5 19-7 17-11 20-10 14-17 17-14 11-15 10-16 9-21 9-15 5h-2v7l-8 36-9 27-9 22-11 23-8 14-11 18-13 18-10 13-5 5-3 5h-2l-1 4-8 7-11 12-12 11-10 9-26 20-21 14-17 10-22 12-19 9 4 1 6-2 139 1 2 3-2 2 3 4 1 7-1 10 1 3-1 11v11l-1 2 4 4 10 17 7 11 5 14 6 26 2 19 1 16v48l-3 44-5 48-6 42-3 16-6 37-10 54-14 68-15 65-2 5h-112l-3-14-19-129-3-20v-8l9-15 9-17 12-29 10-28 2-6-1-6-30-60-11 2-24 5-23 3-11 1h-39l-24-3-19-4h-4l-18 35-12 23-8 15 1 7 9 21 10 18 12 18 10 14v9l-19 159-2 10-105-1-3-8-14-62-12-57-10-53-9-54-6-39-5-42-4-47-1-21v-38l2-29 3-20 5-20 3-8-7 4-7 5-2-1 7-7 7-8 15-16 3-5v-25l1-5-1-2v-14l3-6-3-2 1-4 1-1 142-1 2-1-17-8-19-10-16-9-14-9-16-11-16-13-14-12-23-23-5-6v-2l-3-1-4-6-9-11-8-12-8-13-8-14-5-9-12-26-12-32-7-26-5-21-5-26v-3l-12-2-14-4-16-6-14-6-19-11-14-10-10-9-7-6-9-11-7-10-8-14-6-16-4-16-2-16v-20l3-26 5-21 10-30 6-15h2l1-5 2-1h13l11 6 12 12 9 13 9 16 11 23 12 31 12 37 10 36 11 44 1 5-3-43-2-38-1-40v-36l1-36 3-47 5-44 6-37 8-35 8-27 9-25 11-24 10-16 12-14 10-10 13-10 17-10 20-8 21-5 21-2z" fill="#F0EFEE"/>
<path transform="translate(1171,69)" d="m0 0 6 5 7 10 5 10 3 9 1 6v14l-3 12-7 13-9 11-2 3 6 2 23 12 23 14 15 10 17 12 18 14 14 12 10 9 13 12 12 12 7 8 13 15 15 20 10 15 14 24 11 23 9 24 5 14 9 12 9 10 13 10 14 7 10 3 7 1h14l16-4 12-5 3-1-1 8-6 18-9 17-8 10-9 9-11 7-12 5-9 2-17 1-16-2-2-1 6 27 9 29 10 24 8 15 8 12 10 12 12 9 10 5 8 2 19 1-2 9-6 8-7 6-9 3-12 1-14-2-24-8-22-11-7-4-14 29-9 20-3 1-11-4-10 1-9 6-8 10-8 14-10 25-7 21-10 38-10 48-1 6h-2v-17l-2-39-4-39-6-42-8-44-9-43-9-37-3-12-1-1-28-3-28-5-32-8-32-11-29-13-22-12-20-13-14-10-11-9-14-12-23-23-9-11-12-15-11-17-5-8v-2l-11-3-18-3-12-1h-67l-49 3-18 3-16 5-15 6-17 10-10 8-10 9-11 12-10 15-8 16-8 18-12 36-8 32-6 31-5 35-4 41-2 35-1 36v36l1 40 3 52 2 25v9h-1l-9-39-12-44-11-35-10-28-11-25-12-23-9-13-9-10-7-6-8-4h-13l-2 1-1 3h-2l-10-28-9-29-6-26-3-18-1-10-1-28v-26l1-26 3-32 5-30 7-27 8-23 11-23 10-15 7-9 9-10 11-10 13-9 15-8 17-6 17-4h6v-28l5-25 6-18 8-17 9-14 10-13 12-13 12-11 18-13 17-10 27-13 20-7 27-8 34-7 29-4 36-3h28l18 3 36 9 36 6 10 1h42l18-3 17-5 16-8 10-8 9-10 8-14z" fill="#7B7B7B"/>
<path transform="translate(719,1352)" d="m0 0 2 1-5 15-5 24-2 20-1 18v38l2 35 5 52 7 51 2 11 9 54 12 63 15 70 10 43v4l-715 1-1-1v-133l8-11 12-14 14-15 11-11 8-7 14-12 19-14 17-11 19-11 15-8 25-11 28-10 30-8 110-28 149-38 28-7 4-2 10-16 10-13 11-13 11-12 9-10 9-9 8-7 13-12 11-9 14-12 13-10 16-12z" fill="#7B7B7B"/>
<path transform="translate(1225,1351)" d="m0 0 9 5 19 14 28 22 15 13 10 9 8 7 16 15 7 7 7 8 9 10 11 14 10 14 6 10 21 6 111 28 54 14 60 15 66 17 33 11 25 11 22 11 20 12 16 11 12 9 10 8 15 13 21 21v165l-2 1-689-1 1-9 14-61 14-68 8-43 7-41 3-19 4-24 5-40 4-42 2-32v-48l-2-26-2-14-7-28z" fill="#7B7B7B"/>
<path transform="translate(1225,1351)" d="m0 0 9 5 19 14 28 22 15 13 10 9 8 7 16 15 7 7 7 8 9 10 11 14 10 14 6 10 3 2 12 26 14 31 18 43 10 28 6 21v6l-12 11-13 10-17 12-21 13-27 14-15 6-18 6-18 4-14 2h-30l16 15 8 7 10 9 8 7 12 11 14 12 14 13 8 7 14 12 15 14 8 7 2 3h-212l1-9 14-61 14-68 8-43 7-41 3-19 4-24 5-40 4-42 2-32v-48l-2-26-2-14-7-28z" fill="#A3A7A8"/>
<path transform="translate(719,1352)" d="m0 0 2 1-5 15-5 24-2 20-1 18v38l2 35 5 52 7 51 2 11 9 54 12 63 15 70 10 43v4h-211l6-7 12-11 8-7 10-9 8-7 10-9 8-7 13-12 8-7 20-18 8-7 10-9 7-6h-27l-20-3-17-4-18-6-20-9-23-12-19-12-19-14-22-18 1-10 8-26 11-29 15-35 16-35 8-17v-3l4-2 10-16 10-13 11-13 11-12 9-10 9-9 8-7 13-12 11-9 14-12 13-10 16-12z" fill="#A3A7A8"/>
<path transform="translate(1045,1518)" d="m0 0 4 1 31 62-1 7-9 26-11 27-8 17-11 19-2 3v8l23 156v7h-184v-9l19-159v-9l-13-18-13-21-9-17-7-17 1-7 12-23 18-35 8-14 8 1 21 4 18 2h39l27-3 27-5z" fill="#7B7B7B"/>
<path transform="translate(1080,1584)" d="m0 0 3 3 11 22 11 23 42 84-1 4-4-1h-93l-5 5-1-4-1 2-5-34v-8l9-15 9-17 12-29 10-28z" fill="#DADADA"/>
<path transform="translate(853,1597)" d="m0 0 2 4 10 23 10 18 12 18 10 14v9l-4 34h-5v2l-95 1-2 1 2-5 8-17 10-19 12-24 20-38 8-16z" fill="#DADADA"/>
<path transform="translate(1221,1611)" d="m0 0 1 4-6 38-9 50-3 15-35 1-3 1-2-1 2-5 8-16 42-78z" fill="#DADADA"/>
<path transform="translate(724,1615)" d="m0 0 3 4 22 44 9 19 10 19 7 15v2h-2l-1 2-29-1-2-1-9-47-9-54z" fill="#DADADA"/>
<path transform="translate(1237,1405)" d="m0 0h1l2 15v12l-2 3-1-11z" fill="#818282"/>
<path transform="translate(707,1406)" d="m0 0h1v24l-1 6h-1l-1-13z" fill="#848585"/>
<path transform="translate(752,1770)" d="m0 0 8 1 2 1v2h-6l-1-1-2 3z" fill="#DADADA"/>
</svg>
